<svg xmlns="http://www.w3.org/2000/svg" width="56" height="30.333" viewBox="0 0 56 30.333"><defs></defs><g transform="translate(0 -100)"><path class="a" d="M37.573,25.38H9.419a1.784,1.784,0,0,1-1.75-1.809v-10.7H5.919a1.4,1.4,0,0,1,0-2.792h1.75v-.052h8.749a1.4,1.4,0,0,0,0-2.791H7.669V7.185H1.39A1.387,1.387,0,0,1,0,5.79a1.421,1.421,0,0,1,1.39-1.4H7.669V1.757A1.739,1.739,0,0,1,9.419,0H37.573V4.394h6.279A2.053,2.053,0,0,1,45.6,5.428l3.5,6.41,5.559,1.4A1.813,1.813,0,0,1,56,14.939v8.684a1.739,1.739,0,0,1-1.75,1.757ZM.927,11.579v-.1a1.42,1.42,0,0,1,1.389-1.4,1.387,1.387,0,0,1,1.39,1.4v.1a1.389,1.389,0,1,1-2.779,0Z" transform="translate(0 100)"/><path class="b" d="M102.953,257.6A4.953,4.953,0,1,1,98,262.553a4.925,4.925,0,0,1,4.953-4.953" transform="translate(-85.368 -137.173)"/><path class="c" d="M118.993,276a2.6,2.6,0,1,1-2.6,2.6,2.551,2.551,0,0,1,2.6-2.6" transform="translate(-101.399 -153.224)"/><path class="b" d="M347.353,257.6a4.953,4.953,0,1,1-4.953,4.953,4.925,4.925,0,0,1,4.953-4.953" transform="translate(-298.246 -137.173)"/><path class="c" d="M363.393,276a2.6,2.6,0,1,1-2.6,2.6,2.551,2.551,0,0,1,2.6-2.6" transform="translate(-314.286 -153.224)"/><g transform="translate(7.608 123.59)"><path class="b" d="M188.365,282.8H173.2a4.971,4.971,0,0,1,.306,1.736h14.858Z" transform="translate(-158.699 -282.8)"/><path class="b" d="M64.5,284.536a4.972,4.972,0,0,1,.306-1.736H59.6a1.722,1.722,0,0,0,1.736,1.736Z" transform="translate(-59.6 -282.8)"/></g><g transform="translate(37.021 123.59)"><path class="b" d="M292,282.8v1.736h7.1a4.554,4.554,0,0,1,.338-1.736Z" transform="translate(-292 -282.8)"/><path class="b" d="M417.6,282.8a4.972,4.972,0,0,1,.306,1.736h.2a1.722,1.722,0,0,0,1.736-1.736Z" transform="translate(-400.867 -282.8)"/></g></g></svg>