<svg xmlns="http://www.w3.org/2000/svg" width="80" height="14.999" viewBox="0 0 80 14.999"><defs><style>.a{fill:#222;}</style></defs><path class="a" d="M-247.609-366v-14.994h4.938a3.573,3.573,0,0,1,3.56,2.7,4.162,4.162,0,0,1,.128,1.386h-2.408v-.542a1.064,1.064,0,0,0-.518-.979.989.989,0,0,0-.519-.156h-2.543a.21.21,0,0,0-.053.006V-366Zm-33.768-.015q-1.065-.007-2.132,0a.136.136,0,0,1-.1-.024.127.127,0,0,1-.052-.086q-1.592-4.936-3.186-9.871-.8-2.46-1.588-4.922c-.006-.019-.011-.038-.019-.069.046,0,.083,0,.121,0H-286a.141.141,0,0,1,.107.024.131.131,0,0,1,.056.091q1.685,5.2,3.374,10.4c.008.026.019.052.038.1.022-.054.037-.087.047-.118q1.67-5.188,3.337-10.38a.144.144,0,0,1,.168-.122c.776,0,1.552,0,2.327,0h.136c-.111.346-.215.671-.32,1q-2.241,6.932-4.478,13.864a.14.14,0,0,1-.06.094.15.15,0,0,1-.086.027Zm14,0c-.736,0-1.472,0-2.209,0-.1,0-.106-.062-.125-.12l-1.928-5.969q-1.416-4.374-2.829-8.752l-.04-.13c.043,0,.077-.007.11-.007h2.371a.129.129,0,0,1,.093.023.12.12,0,0,1,.049.08q1.678,5.181,3.359,10.361c.014.045.031.087.057.159.022-.059.038-.094.049-.128l3.338-10.381a.132.132,0,0,1,.055-.091.144.144,0,0,1,.106-.026h2.327l.14,0-.283.876-4.167,12.9c-.121.375-.245.751-.361,1.125a.092.092,0,0,1-.037.064.107.107,0,0,1-.059.018Zm-51.592,0V-381c.05,0,.1,0,.15,0h12.047a3.657,3.657,0,0,1,3.547,2.585,3.113,3.113,0,0,1,.117.818q.012,5.735.005,11.471a.878.878,0,0,1,0,.1h-2.617v-11.558a1.1,1.1,0,0,0-.737-1.058,1.169,1.169,0,0,0-.369-.068c-.981-.005-1.963,0-2.944,0a.522.522,0,0,0-.066,0v12.678h-2.417V-378.7h-4.112v12.688Zm62.271,0a3.669,3.669,0,0,1-2.354-.8,3.359,3.359,0,0,1-1.322-2.3,3.22,3.22,0,0,1-.022-.373c0-2.583-.008-5.167.006-7.75a3.777,3.777,0,0,1,.871-2.477,3.393,3.393,0,0,1,2.172-1.234,4.4,4.4,0,0,1,.625-.041c.992,0,1.984.009,2.976,0a3.53,3.53,0,0,1,3.542,2.636,4.78,4.78,0,0,1,.159,1.262v5.264h-7.626c-.146,0-.146,0-.146.139,0,.742.011,1.482,0,2.224a1.2,1.2,0,0,0,1.211,1.168c.592-.011,1.184-.009,1.777-.006.385,0,.77,0,1.156,0a1.171,1.171,0,0,0,.621-.146.78.78,0,0,0,.342-.474,4.261,4.261,0,0,0,.171-1.1.344.344,0,0,1,.005-.075h2.49c0,.248.009.493,0,.737a3.58,3.58,0,0,1-2.918,3.28,4.07,4.07,0,0,1-.709.066q-.5,0-1.009,0Zm4.062-8.046a.271.271,0,0,0,.006-.029c0-1.177.008-2.354,0-3.532a1.12,1.12,0,0,0-1.116-1.046c-.992,0-1.984,0-2.976,0a.725.725,0,0,0-.139.013,1.122,1.122,0,0,0-.951,1.121v3.473Zm-5.177,0h0Zm-39.4,8.049a3.636,3.636,0,0,1-3.575-2.858,3.349,3.349,0,0,1-.059-.607q-.005-5.681,0-11.365l0-.14h2.595v.13c0,3.8.006,7.6-.005,11.4a1.07,1.07,0,0,0,.325.8,1.163,1.163,0,0,0,.824.329h3.951c.024,0,.049,0,.08-.007v-12.644h2.592v14.968Z" transform="translate(318.971 381)"/></svg>